<?xml version="1.0" encoding="iso-8859-1"?>
<!-- Generator: Adobe Illustrator 19.0.0, SVG Export Plug-In . SVG Version: 6.00 Build 0)  -->
<svg version="1.1" id="Capa_1" xmlns="http://www.w3.org/2000/svg" xmlns:xlink="http://www.w3.org/1999/xlink" x="0px" y="0px"
	 viewBox="0 0 480 480" style="enable-background:new 0 0 480 480;" xml:space="preserve">
<linearGradient id="SVGID_1_" gradientUnits="userSpaceOnUse" x1="-26.875" y1="559.975" x2="-26.875" y2="615.74" gradientTransform="matrix(8 0 0 -8 455 4941)">
	<stop  offset="0" style="stop-color:#006DF0"/>
	<stop  offset="1" style="stop-color:#00E7F0"/>
</linearGradient>
<path style="fill:url(#SVGID_1_);" d="M472,88h-32V48c0-4.8-3.2-8-8-8h-0.8l-20.8,1.6c-50.4,4-100,16-147.2,36L240,87.2l-23.2-9.6
	c-47.2-19.2-96.8-32-147.2-36L48.8,40c-2.4,0-4.8,0.8-6.4,2.4C40.8,44,40,45.6,40,48v40H8c-4.8,0-8,3.2-8,8v336c0,4.8,3.2,8,8,8h464
	c4.8,0,8-3.2,8-8V96C480,91.2,476.8,88,472,88z M269.6,92.8c45.6-19.2,93.6-30.4,142.4-34.4l12-1.6v320l-12.8,0.8
	c-50.4,4-100,16-147.2,36l-16,6.4v-34.4l3.2-1.6c42.4-17.6,88-29.6,133.6-36c4-0.8,8-4,7.2-8.8c-0.8-4-4-8-8.8-7.2c0,0,0,0-0.8,0
	c-45.6,6.4-91.2,18.4-134.4,36v-38.4l40-16.8c31.2-12.8,64-22.4,97.6-27.2c4-0.8,7.2-4.8,6.4-8.8s-4.8-7.2-8.8-6.4
	c-34.4,5.6-68.8,15.2-100.8,28.8L248,312v-38.4l40-16.8c31.2-12.8,64-22.4,97.6-27.2c4-0.8,7.2-4.8,6.4-8.8c-0.8-4-4.8-7.2-8.8-6.4
	c-34.4,5.6-68.8,15.2-100.8,28.8L248,256v-38.4l40-16.8c31.2-12.8,64-22.4,97.6-27.2c4-0.8,7.2-4.8,6.4-8.8c-0.8-4-4.8-7.2-8.8-6.4
	c-34.4,5.6-68.8,15.2-100.8,28.8L248,200v-38.4l40-16.8c31.2-12.8,64-22.4,97.6-27.2c4-0.8,7.2-4.8,6.4-8.8c-0.8-4-4.8-7.2-8.8-6.4
	l0,0c-34.4,5.6-68.8,15.2-100.8,28.8L248,144v-42.4L269.6,92.8z M56,56.8l12,0.8c48.8,4,96.8,16,142.4,34.4l21.6,8.8V144l-33.6-14.4
	c-32-13.6-66.4-23.2-100.8-28.8c-4-0.8-8.8,2.4-9.6,6.4s2.4,8.8,6.4,9.6c0,0,0,0,0.8,0c33.6,5.6,66.4,14.4,97.6,27.2l40,16.8V200
	l-33.6-14.4c-32-13.6-66.4-23.2-100.8-28.8c-4-0.8-8.8,2.4-9.6,6.4c-0.8,4,2.4,8.8,6.4,9.6c0,0,0,0,0.8,0
	c33.6,5.6,66.4,14.4,97.6,27.2l40,16.8V256L200,241.6c-32-13.6-66.4-23.2-100.8-28.8c-4-0.8-8.8,2.4-9.6,6.4c-0.8,4,2.4,8.8,6.4,9.6
	c0,0,0,0,0.8,0c33.6,5.6,66.4,14.4,97.6,27.2l40,16.8V312l-33.6-14.4c-32-13.6-66.4-23.2-100.8-28.8c-4-0.8-8.8,2.4-9.6,6.4
	c-0.8,4,2.4,8.8,6.4,9.6c0,0,0,0,0.8,0c33.6,5.6,66.4,14.4,97.6,27.2l40,16.8V368c-43.2-17.6-88.8-29.6-135.2-36
	c-4-0.8-8,2.4-8.8,7.2c-0.8,4,2.4,8,7.2,8.8l0,0c46.4,5.6,91.2,17.6,134.4,36l2.4,0.8v34.4l-14.4-6.4c-47.2-20-96.8-32-147.2-36H56
	V56.8z M16,104h24v280c0,4,3.2,8,7.2,8l21.6,1.6c5.6,0.8,12,0.8,17.6,1.6c1.6,0,4,0.8,5.6,0.8c4,0.8,8,0.8,12,1.6
	c2.4,0,4.8,0.8,7.2,1.6c3.2,0.8,7.2,1.6,10.4,1.6c2.4,0.8,4.8,0.8,7.2,1.6c3.2,0.8,6.4,1.6,10.4,2.4c2.4,0.8,4.8,0.8,7.2,1.6
	c3.2,0.8,6.4,1.6,9.6,2.4c2.4,0.8,4.8,1.6,7.2,2.4c3.2,0.8,6.4,1.6,9.6,3.2c2.4,0.8,4.8,1.6,7.2,2.4c3.2,0.8,6.4,2.4,9.6,3.2
	c2.4,0.8,4.8,1.6,7.2,2.4c0.8,0,1.6,0.8,3.2,0.8H16V104z M464,424H280.8c0.8-0.8,2.4-0.8,3.2-1.6c2.4-0.8,4.8-1.6,7.2-2.4
	c3.2-0.8,6.4-2.4,9.6-3.2c2.4-0.8,4.8-1.6,7.2-2.4c3.2-0.8,6.4-1.6,9.6-3.2c2.4-0.8,4.8-1.6,7.2-2.4c3.2-0.8,6.4-1.6,9.6-2.4
	c2.4-0.8,4.8-1.6,7.2-1.6c3.2-0.8,6.4-1.6,10.4-2.4c2.4-0.8,4.8-0.8,7.2-1.6c3.2-0.8,7.2-1.6,10.4-1.6c2.4,0,4.8-0.8,7.2-1.6
	c4-0.8,8-0.8,12-1.6c1.6,0,4-0.8,5.6-0.8c5.6-0.8,12-1.6,17.6-1.6l20.8-1.6c4,0,7.2-4,7.2-8V104h24L464,424L464,424z"/>
<g>
</g>
<g>
</g>
<g>
</g>
<g>
</g>
<g>
</g>
<g>
</g>
<g>
</g>
<g>
</g>
<g>
</g>
<g>
</g>
<g>
</g>
<g>
</g>
<g>
</g>
<g>
</g>
<g>
</g>
</svg>
